<svg width="15" height="15" viewBox="0 0 15 15" fill="none" xmlns="http://www.w3.org/2000/svg">
<path d="M12.8033 2.19668C11.3867 0.780147 9.50332 0 7.5 0C5.49668 0 3.61327 0.780147 2.19668 2.19668C0.780147 3.61327 0 5.49668 0 7.5C0 9.50332 0.780147 11.3867 2.19668 12.8033C3.61327 14.2199 5.49668 15 7.5 15C9.50332 15 11.3867 14.2199 12.8033 12.8033C14.2199 11.3867 15 9.50332 15 7.5C15 5.49668 14.2199 3.61327 12.8033 2.19668ZM7.5 13.5555C4.16098 13.5555 1.44451 10.839 1.44451 7.5C1.44451 4.16101 4.16101 1.44451 7.5 1.44451C10.839 1.44451 13.5555 4.16101 13.5555 7.5C13.5555 10.839 10.839 13.5555 7.5 13.5555Z" fill="black"/>
<path d="M7.5 2.32349C4.64561 2.32349 2.32342 4.6457 2.32342 7.50007C2.32342 10.3545 4.64563 12.6766 7.5 12.6766C10.3544 12.6766 12.6766 10.3544 12.6766 7.50007C12.6766 4.6457 10.3544 2.32349 7.5 2.32349ZM7.5 10.35C5.92854 10.35 4.65009 9.07149 4.65009 7.50007C4.65009 5.92864 5.92857 4.65016 7.5 4.65016C9.07143 4.65016 10.3499 5.92861 10.3499 7.50007C10.3499 9.07152 9.07145 10.35 7.5 10.35Z" fill="black"/>
<path d="M7.5 5.52905C6.41317 5.52905 5.52899 6.41323 5.52899 7.50005C5.52899 8.58688 6.4132 9.47105 7.5 9.47105C8.58679 9.47105 9.471 8.58685 9.471 7.50005C9.471 6.41326 8.58682 5.52905 7.5 5.52905Z" fill="black"/>
</svg>
