<svg width="17.62" height="20" viewBox="0 0 27 30" fill="none" xmlns="http://www.w3.org/2000/svg">
<path d="M4.01562 0H2.25781V21.2109H0.5V26.4844H2.25781V30H4.01562V26.4844H5.77344V21.2109H4.01562V0ZM4.01562 24.7266H2.25781V22.9688H4.01562V24.7266Z" fill="black"/>
<path d="M26.9258 21.2109H25.168V0H23.4102V21.2109H21.6523V26.4844H23.4102V30H25.168V26.4844H26.9258V21.2109ZM25.168 24.7266H23.4102V22.9688H25.168V24.7266Z" fill="black"/>
<path d="M18.1367 0H16.3789V13.0078H14.6211V18.2812H16.3789V30H18.1367V18.2812H19.8945V13.0078H18.1367V0ZM18.1367 16.5234H16.3789V14.7656H18.1367V16.5234Z" fill="black"/>
<path d="M11.0469 0H9.28906V3.14367H7.53125V8.41711H9.28906V30H11.0469V8.41711H12.8047V3.14367H11.0469V0ZM11.0469 6.6593H9.28906V4.90148H11.0469V6.6593Z" fill="black"/>
</svg>
