<svg width="8" height="10" viewBox="0 0 7 10" fill="none" xmlns="http://www.w3.org/2000/svg">
<path d="M3.33334 0C1.49537 0 0 1.49537 0 3.33334C0 3.8851 0.137949 4.43217 0.400195 4.9174L3.15105 9.89258C3.18768 9.95891 3.25746 10 3.33334 10C3.40922 10 3.479 9.95891 3.51562 9.89258L6.2675 4.91576C6.52873 4.43217 6.66668 3.88508 6.66668 3.33332C6.66668 1.49537 5.17131 0 3.33334 0ZM3.33334 5C2.41436 5 1.66668 4.25232 1.66668 3.33334C1.66668 2.41436 2.41436 1.66668 3.33334 1.66668C4.25232 1.66668 5 2.41436 5 3.33334C5 4.25232 4.25232 5 3.33334 5Z" fill="#4A8CFF"/>
</svg>
