<svg width="163" height="25" viewBox="0 0 163 25" fill="none" xmlns="http://www.w3.org/2000/svg">
<path fill-rule="evenodd" clip-rule="evenodd" d="M0.756332 24.9873V0.0352372H108.253C108.77 0.169616 109.082 0.214699 109.395 0.685459H109.531C109.98 0.214699 110.405 0.0126953 110.785 0.0126953C112.221 0.0577774 112.983 2.8598 110.809 3.57765C110.809 4.20533 111.547 6.22275 112.086 6.37967C112.512 5.54999 112.803 4.69863 113.408 3.95911C113.924 2.50175 112.937 0.0361028 114.843 0.0135618C114.977 0.0135618 115.113 0.0361045 115.268 0.0586456C116.792 0.574488 116.547 3.01846 115.135 3.60105C114.82 4.49749 115.291 5.3948 115.606 6.31291C115.627 6.73946 115.448 8.98056 116.21 9.2944C116.86 7.85958 117.13 6.22362 117.869 4.85555C119.953 3.08521 119.864 3.91403 119.82 1.22385C120.043 0.416703 120.671 0.0352372 121.276 0.0352372C121.882 0.0352372 122.353 0.39416 122.533 1.17876C122.533 2.34483 122.598 3.08435 121.344 3.33057C120.941 3.64441 121.681 6.08837 122.04 6.55913H122.174C123.316 4.58679 122.891 1.06693 124.483 0.102863C124.684 0.0577808 124.842 0.0352372 125.02 0.0352372C127.038 0.0126962 126.837 3.19619 125.379 3.51003C124.595 4.29463 125.895 6.31205 126.208 7.11919C126.208 8.57655 125.4 8.80023 126.926 10.0339C127.667 10.5498 129.258 11.1324 129.168 12.2317C127.89 13.083 127.397 10.6841 125.939 10.6841C125.939 13.5087 127.397 16.8933 128.63 19.3824C130.445 17.3199 132.015 15.325 131.252 12.4111C131.252 11.4011 131.881 10.4154 131.723 9.40624H131.611C131.162 10.5047 130.826 11.4687 130.714 12.7024C130.333 14.0688 129.01 13.4428 129.773 12.2976C129.884 9.33861 130.243 5.66182 132.777 3.71202C133.181 3.10688 132.912 2.43325 132.8 1.76136C132.8 0.617834 133.427 0.0352372 134.122 0.0352372C135.175 0.0352372 136.364 1.26806 135.243 3.03926C135.04 3.24126 134.749 3.44327 134.458 3.46494C134.324 3.57765 133.965 8.21763 135.018 8.46472C135.668 7.99396 136.296 7.5232 136.924 7.07498C137.125 7.07498 139.031 9.63078 139.502 10.2142C139.098 10.7067 138.381 11.1774 137.888 11.5814C137.798 12.3661 137.417 12.7024 136.7 12.523C134.413 14.4502 136.005 13.1949 134.593 12.8359C134.593 14.6288 134.481 16.5136 134.435 18.3732C133.943 19.7638 133.651 21.8714 133.741 23.4415C134.345 23.9565 134.569 24.2478 135.422 24.3596C135.623 24.4498 135.757 24.4732 135.735 24.8087C135.601 24.8989 135.175 24.9882 134.635 24.9882C133.761 24.9804 132.886 24.9503 132.013 24.898C131.901 24.4272 131.969 23.9105 131.945 23.464C131.229 23.464 129.793 24.2703 129.076 24.5634C128.47 24.2486 128.851 22.9482 128.135 22.7687C127.844 23.06 128 23.8897 128.201 24.2946C128.56 24.4741 128.695 24.4064 128.897 24.7654C128.829 24.9214 129.076 24.989 128.516 24.989C127.956 24.989 125.692 22.7687 126.185 22.1185C126.588 21.8506 127.148 21.5585 127.374 21.1328C126.476 19.0486 125.153 17.1413 124.346 15.0571H124.256C123.293 17.7698 121.252 19.8765 120.49 22.6127C120.49 23.823 122.305 22.4332 122.305 23.5083C121.992 23.7094 121.701 23.8889 121.41 24.0909V24.2044C121.701 24.4957 122.261 24.1585 122.172 24.8087C121.948 24.9205 121.41 24.9882 120.804 24.9882C119.796 24.9882 118.608 24.8547 118.45 24.7411C118.428 24.3163 118.428 23.979 118.428 23.5542C118.382 23.5308 118.361 23.5083 118.338 23.4866C117.867 23.8897 116.118 24.9882 115.087 24.9882C114.886 24.9882 114.706 24.898 114.572 24.8087C112.845 24.8087 110.962 24.9665 109.214 24.8989C109.191 24.9448 109.191 24.9665 109.168 24.989H0.756332V24.9873Z" fill="black"/>
<path fill-rule="evenodd" clip-rule="evenodd" d="M103.113 22.7285C103.209 22.988 103.381 23.2122 103.607 23.3713C103.833 23.5304 104.102 23.6168 104.378 23.6189C105.121 23.6189 105.728 23.0008 105.728 22.2439C105.728 21.487 105.122 20.8689 104.378 20.8689C103.634 20.8689 103.028 21.487 103.028 22.2439C103.029 22.4052 103.061 22.5777 103.113 22.7285Z" fill="white"/>
<path fill-rule="evenodd" clip-rule="evenodd" d="M103.261 22.6669C103.346 22.8984 103.499 23.0986 103.701 23.2408C103.902 23.383 104.142 23.4604 104.389 23.4628C105.053 23.4628 105.593 22.9105 105.593 22.2352C105.593 21.5615 105.053 21.0093 104.389 21.0093C103.726 21.0093 103.186 21.5615 103.186 22.2352C103.186 22.3791 103.216 22.5334 103.261 22.6669Z" fill="black"/>
<path fill-rule="evenodd" clip-rule="evenodd" d="M151.095 24.8535C150.67 24.674 148.763 22.8811 149.459 22.3644C150.444 20.6391 151.318 19.0916 152.058 17.3204C152.507 15.3255 152.618 13.1495 152.776 11.1329C152.754 11.1104 152.73 11.0878 152.73 11.0653C152.237 11.9392 152.193 13.0836 152.058 14.0468C151.252 14.6753 150.624 14.4057 150.781 13.4182C151.878 10.2798 152.394 7.00703 154.165 4.09316C154.546 3.2184 154.615 2.7251 154.501 1.80612C154.501 0.528213 154.838 0.0349121 155.711 0.0349121C156.587 0.0349121 157.887 1.51482 156.519 3.33024C155.197 4.31684 156.093 4.94452 156.452 6.49118C156.563 9.40591 156.789 9.71975 159.39 11.3557C160.062 12.0285 159.994 12.7671 158.851 12.7012C158.448 12.0059 157.393 10.93 156.609 10.93C156.609 13.3281 157.663 15.4807 158.582 17.7461C158.895 19.0006 159.77 22.6106 161.092 22.9461C161.428 22.9461 162.953 22.7008 162.953 23.3727C162.281 23.6423 159.86 24.8526 159.411 23.977C159.231 23.0138 158.447 22.0722 158.02 21.2642C157.258 19.4271 156.003 17.812 155.128 16.0859H154.994C154.209 18.5732 152.527 20.412 151.161 22.6765C150.869 23.7533 151.743 23.7316 152.08 24.583C151.857 24.9653 151.498 24.8535 151.095 24.8535ZM143.675 24.8977C143.474 24.876 143.27 24.8535 143.091 24.8535C142.8 24.5162 143.047 24.0454 143.158 23.7325C143.36 22.4762 143.18 21.0856 143.158 19.8528C142.464 19.8528 141.298 20.9521 140.872 21.4446C140.872 22.1165 141.006 22.8568 141.052 23.5964C140.535 24.1131 139.169 21.3327 139.325 21.0189C140.558 20.301 144.056 17.3412 143.563 15.8171C142.666 13.8881 141.746 12.0961 142.554 9.98851C142.576 9.56197 142.622 9.18137 142.666 8.77823C142.598 8.77823 142.554 8.77823 142.508 8.80077C142.217 9.51862 141.321 13.0376 140.334 12.2756C140.334 11.9843 140.647 11.6253 140.826 11.3566C141.185 9.00277 142.148 6.98535 142.621 4.6983C143.113 3.7117 143.495 2.8378 143.607 1.78357C143.83 0.685133 144.481 0.0349121 145.065 0.0349121C145.602 0.0349121 146.072 0.528214 146.208 1.67174C146.14 2.4338 146.117 2.97218 145.31 3.17332C144.301 3.98046 146.072 5.54966 146.072 6.6481C145.871 7.05124 145.692 7.45525 145.512 7.83671C145.512 8.80077 147.8 10.3917 147.8 11.3783C147.038 12.5218 146.88 11.1763 146.567 10.6162C146.162 10.1454 145.692 9.62959 145.155 9.49521C144.976 9.69722 146.006 15.5258 146.029 16.3772C145.961 17.4981 145.961 17.5198 145.199 18.2377C144.595 19.135 143.899 22.6991 144.773 23.82C144.976 23.9085 146.073 24.3567 146.187 24.7832C145.893 24.9428 143.697 24.9428 143.675 24.8977Z" fill="black"/>
<path fill-rule="evenodd" clip-rule="evenodd" d="M36.4024 22.4762C35.0352 21.9838 36.9182 21.2659 37.4115 20.9746C37.9499 20.5255 38.4423 19.9438 38.51 19.2251L39.5633 5.23663C39.4957 4.69911 39.4289 4.38528 39.1151 4.00381C38.712 3.66743 36.066 3.08483 37.5234 2.25514H51.8265C52.9475 2.36698 52.4091 4.20582 52.2973 4.99042C52.2296 5.64064 52.1854 6.31253 52.1404 6.96275C50.885 8.06119 51.1095 5.75247 50.9075 5.16987C49.8542 3.39867 45.8185 3.53305 44.2493 4.16073L43.7785 10.7072C44.7651 11.1112 47.4327 10.9317 48.3968 9.56364C48.6213 8.98104 48.845 8.19644 49.6071 8.59958C49.7198 9.13796 49.8091 15.9982 48.4419 15.0784C48.1948 14.5183 48.083 13.9132 47.8593 13.4424C46.9845 12.3431 44.0481 11.7822 43.3086 13.0835L42.7702 19.4505C43.0841 22.2967 48.1506 20.392 49.6756 19.4288C50.37 18.8445 51.693 17.1634 52.2981 17.0733C53.329 17.7469 51.4008 20.9529 50.6388 21.6248C50.4142 21.8043 49.1138 22.4545 49.1138 22.4762C44.9437 22.4762 40.5491 22.5655 36.4024 22.4762ZM79.311 22.5655C75.5449 22.5438 71.7563 22.5213 67.9893 22.5213C66.6221 22.0505 68.7071 21.2208 69.0435 21.0197C69.4917 20.6608 69.6712 20.4596 69.8732 19.9204L71.1511 5.23663C70.8815 3.39867 70.0527 3.98127 68.8641 3.21921C68.5944 2.74845 68.7739 2.5239 69.1779 2.30023H83.6597C84.5795 2.72591 83.8174 7.12054 83.3684 7.27746C82.4268 7.27746 82.7181 6.58216 82.6739 5.79756C82.3141 4.13906 81.0822 4.09398 79.6473 3.98214C78.952 3.9596 76.0607 3.60154 75.6567 4.56473L75.186 10.6846C76.3286 11.5143 79.0197 10.7965 79.9386 9.7431C80.1181 9.29488 80.9253 7.63552 81.3067 8.98104C81.2391 10.8199 81.0154 12.7471 80.8585 14.6302C80.2533 16.469 79.5355 13.6444 79.2442 13.2396C78.3252 12.5 75.3437 11.8724 74.9172 13.1494C74.7161 15.1677 74.2453 17.6567 74.3797 19.7418C74.8504 21.9161 79.0205 20.6616 80.477 20.0114C81.7775 19.1601 82.6072 18.2619 83.638 17.1192C85.2973 17.1184 82.7641 23.4411 79.311 22.5655ZM93.0983 22.7449C88.2554 22.1164 85.2297 19.1809 84.9601 14.2478C84.9601 7.11881 89.2204 2.34444 96.3034 2.09736C98.3443 2.25428 99.9351 2.7025 101.818 3.46456C102.468 3.62235 102.468 3.62235 102.468 3.59981C102.917 3.59981 103.388 2.2092 104.06 2.85942C104.106 4.78755 104.15 6.73821 104.218 8.66547C103.927 9.36078 103.589 9.11369 103.255 8.68801C102.403 6.64805 100.945 4.74247 98.9945 3.82348C90.3197 1.2226 87.3815 13.015 91.7085 18.574C92.5165 19.3378 93.0991 19.7843 94.1976 20.2334C97.8735 20.9512 100.161 19.2242 102.828 16.8921C103.59 16.4673 103.748 16.9597 103.434 17.6559C100.923 21.2876 97.4027 22.8568 93.0983 22.7449ZM59.8069 22.7449C58.5515 22.5655 54.8748 21.9369 54.5834 21.1749C54.3589 19.6508 53.9332 17.8119 53.9332 16.3104C54.1578 15.8179 54.4265 15.8179 54.9424 16.0867C55.8614 18.3963 56.893 20.4804 59.4705 21.265C60.816 21.4445 61.937 21.3769 63.1473 20.7284C68.3257 16.0416 59.6049 14.384 57.0049 12.7463C53.5968 9.87662 54.6285 3.35359 58.731 2.43374C59.2468 2.16498 59.7627 2.21006 60.2785 2.09736C61.0631 1.9179 65.5696 3.08397 66.3091 3.17326C68.0352 2.36612 67.6763 3.30764 67.6312 4.98954C67.6312 5.8409 67.8549 7.45519 67.6312 8.28487C66.5779 9.60786 66.0395 6.76075 65.86 6.31253C64.2458 3.82435 60.9062 2.16498 58.529 4.54219C56.3772 8.42098 60.8377 9.2498 63.7525 10.4384C66.981 11.8958 67.9442 13.5768 67.4735 17.1634C66.6446 20.8844 63.4161 22.8568 59.8069 22.7449ZM17.1671 22.5221C16.0235 22.0514 18.5568 21.0639 18.7137 20.9521C19.6778 19.7192 18.8256 16.1309 17.122 15.7737C15.1713 15.7061 13.2432 15.6601 11.3159 15.8179C10.0606 16.4681 8.40121 19.6733 9.56728 20.7726C9.99295 20.9521 12.6615 21.6465 11.7191 22.4536C5.93557 22.4536 4.14182 22.7909 4.74696 21.7592C5.82286 21.063 6.29362 20.6382 7.07823 19.6508C10.5756 14.136 13.4903 8.17217 16.8307 2.59066C17.0102 2.36612 17.0769 2.2092 17.4133 2.2092C17.5477 2.34358 17.6604 2.52304 17.7948 2.76925C19.8347 8.48601 21.8972 14.2028 23.9372 19.9195C24.453 21.0188 24.7669 21.3101 25.9988 21.376C27.008 21.063 27.1649 20.1666 27.3218 19.2242C27.7024 14.742 28.2417 10.2572 28.5321 5.81923C28.5321 3.6891 28.1064 3.75672 26.3127 3.21834C25.8644 3.0172 26.0214 2.34444 26.4245 2.25428H34.9884C36.3556 2.79266 33.7555 3.73419 33.2622 4.31679C33.1721 4.49625 33.0828 4.69825 32.9926 4.89938C32.5669 9.74137 32.1413 14.5625 31.7147 19.4271C31.7147 21.8485 33.5752 20.6599 34.1136 21.6014C34.2038 22.3635 33.2622 22.5872 32.0736 22.5872L17.1671 22.5221Z" fill="white"/>
<path fill-rule="evenodd" clip-rule="evenodd" d="M13.1322 14.1588C12.7733 14.1371 12.28 14.1371 12.0112 14.0253C12.0112 13.3751 14.8809 8.53307 14.9251 8.48712C15.643 7.77014 17.3682 13.4427 17.4584 13.9351C17.324 14.3166 13.7374 14.1588 13.1322 14.1588Z" fill="black"/>
</svg>
