<svg width="20" height="20" viewBox="0 0 20 20" fill="none" xmlns="http://www.w3.org/2000/svg">
<path d="M19.7556 18.5773L14.0682 12.8899C15.1699 11.5291 15.8332 9.7999 15.8332 7.9166C15.8332 3.55164 12.2815 0 7.91656 0C3.55161 0 0 3.55161 0 7.91656C0 12.2815 3.55164 15.8332 7.9166 15.8332C9.7999 15.8332 11.5291 15.1699 12.8899 14.0682L18.5773 19.7556C18.7398 19.9181 18.9531 19.9998 19.1665 19.9998C19.3798 19.9998 19.5932 19.9181 19.7557 19.7556C20.0815 19.4298 20.0815 18.9031 19.7556 18.5773ZM7.9166 14.1665C4.46996 14.1665 1.66666 11.3632 1.66666 7.91656C1.66666 4.46992 4.46996 1.66662 7.9166 1.66662C11.3632 1.66662 14.1665 4.46992 14.1665 7.91656C14.1665 11.3632 11.3632 14.1665 7.9166 14.1665Z" fill="#4A8CFF"/>
</svg>
